HIERARCHY
ROOT Hips
{
	OFFSET 54.408798 -4.798514 84.470497
	CHANNELS 6 Xposition Yposition Zposition Xrotation Yrotation Zrotation
	JOINT spine
	{
		OFFSET 0.000000 -0.342408 5.954384
		CHANNELS 3 Xrotation Yrotation Zrotation
		JOINT spine1
		{
			OFFSET 0.000000 -0.000001 8.856018
			CHANNELS 3 Xrotation Yrotation Zrotation
			JOINT spine2
			{
				OFFSET 0.000000 -0.000001 8.485672
				CHANNELS 3 Xrotation Yrotation Zrotation
				JOINT Neck
				{
					OFFSET 0.000000 -1.038703 21.786301
					CHANNELS 3 Xrotation Yrotation Zrotation
					JOINT Head
					{
						OFFSET 0.000000 -0.000001 6.582199
						CHANNELS 3 Xrotation Yrotation Zrotation
						End Site
						{
							OFFSET 0.000000 5.254358 15.932602
						}
					}
				}
				JOINT RightShoulder
				{
					OFFSET -3.573071 0.497524 9.163864
					CHANNELS 3 Xrotation Yrotation Zrotation
					JOINT RightArm
					{
						OFFSET 0.000000 -0.000002 12.019196
						CHANNELS 3 Xrotation Yrotation Zrotation
						JOINT RightArmRoll
						{
							OFFSET 0.000000 -0.000001 6.067551
							CHANNELS 3 Xrotation Yrotation Zrotation
							JOINT RightForeArm
							{
								OFFSET 0.000000 -0.000003 17.672607
								CHANNELS 3 Xrotation Yrotation Zrotation
								JOINT RightForeArmRoll
								{
									OFFSET 0.000000 -0.000001 6.808716
									CHANNELS 3 Xrotation Yrotation Zrotation
									JOINT RightHand
									{
										OFFSET 0.000000 -0.000002 13.663605
										CHANNELS 3 Xrotation Yrotation Zrotation
										End Site
										{
											OFFSET 0.000000 0.000000 0.100006
										}
									}
								}
							}
						}
					}
				}
				JOINT LeftShoulder
				{
					OFFSET 3.573071 0.497524 9.163864
					CHANNELS 3 Xrotation Yrotation Zrotation
					JOINT LeftArm
					{
						OFFSET 0.000000 -0.000002 12.019196
						CHANNELS 3 Xrotation Yrotation Zrotation
						JOINT LeftArmRoll
						{
							OFFSET 0.000000 -0.000001 6.067551
							CHANNELS 3 Xrotation Yrotation Zrotation
							JOINT LeftForeArm
							{
								OFFSET 0.000000 -0.000003 17.672607
								CHANNELS 3 Xrotation Yrotation Zrotation
								JOINT LeftForeArmRoll
								{
									OFFSET 0.000000 -0.000001 6.808716
									CHANNELS 3 Xrotation Yrotation Zrotation
									JOINT LeftHand
									{
										OFFSET 0.000000 -0.000002 13.663605
										CHANNELS 3 Xrotation Yrotation Zrotation
										End Site
										{
											OFFSET 0.000000 0.000000 0.100006
										}
									}
								}
							}
						}
					}
				}
			}
		}
	}
	JOINT RightUpLeg
	{
		OFFSET -5.277740 0.811858 -0.967796
		CHANNELS 3 Xrotation Yrotation Zrotation
		JOINT RightUpLegRoll
		{
			OFFSET 0.000000 -0.000003 16.021400
			CHANNELS 3 Xrotation Yrotation Zrotation
			JOINT RightLeg
			{
				OFFSET 0.000000 0.000003 -19.840096
				CHANNELS 3 Xrotation Yrotation Zrotation
				JOINT RightLegRoll
				{
					OFFSET 0.000000 -0.000003 19.904999
					CHANNELS 3 Xrotation Yrotation Zrotation
					JOINT RightFoot
					{
						OFFSET 0.000000 -0.000003 16.567497
						CHANNELS 3 Xrotation Yrotation Zrotation
						JOINT RightToeBase
						{
							OFFSET 0.000000 -0.000002 13.849602
							CHANNELS 3 Xrotation Yrotation Zrotation
							End Site
							{
								OFFSET 0.005871 0.773116 6.707275
							}
						}
					}
				}
			}
		}
	}
	JOINT LeftUpLeg
	{
		OFFSET 5.277740 0.811858 -0.967796
		CHANNELS 3 Xrotation Yrotation Zrotation
		JOINT LeftUpLegRoll
		{
			OFFSET 0.000000 -0.000003 16.021500
			CHANNELS 3 Xrotation Yrotation Zrotation
			JOINT LeftLeg
			{
				OFFSET 0.000000 -0.000003 19.839996
				CHANNELS 3 Xrotation Yrotation Zrotation
				JOINT LeftLegRoll
				{
					OFFSET 0.000000 -0.000003 20.089005
					CHANNELS 3 Xrotation Yrotation Zrotation
					JOINT LeftFoot
					{
						OFFSET 0.000000 -0.000003 16.383499
						CHANNELS 3 Xrotation Yrotation Zrotation
						JOINT LeftToeBase
						{
							OFFSET 0.000000 -0.000002 13.849594
							CHANNELS 3 Xrotation Yrotation Zrotation
							End Site
							{
								OFFSET -0.026310 0.773115 6.707275
							}
						}
					}
				}
			}
		}
	}
}
MOTION
Frames: 10
Frame Time: 0.041667
54.931705 -3.759433 84.502098 -10.713234 -1.484066 -0.256576 -0.433349 0.185773 0.050424 3.136275 0.368749 0.111880 4.781359 0.370078 0.110045 6.511565 11.841207 -1.821568 5.888330 -13.833460 -2.047119 3.697169 -63.524195 3.740339 -57.348563 -142.011914 -93.082843 -0.000002 0.000003 0.000002 79.671459 2.210374 -4.560987 -0.000003 0.000008 -2.999999 -5.000160 -7.999939 -0.000008 -17.349568 70.894789 20.569502 -54.795490 138.213113 89.846508 -0.000001 0.000000 0.000000 86.860950 -1.936103 4.650342 0.000003 -0.000002 2.999990 -5.000168 7.999932 -0.000012 4.108163 -175.902534 6.175635 -179.999991 0.000005 -1.186003 168.899281 -3.634894 -0.690669 -0.000001 0.000001 0.150486 70.398213 6.862925 2.108722 25.456858 -7.355619 -0.000003 5.871315 180.088565 -0.140281 -0.000005 -0.000004 -1.208090 -8.370454 2.363907 0.381517 -0.000002 0.000000 -0.115387 69.825727 -6.865171 -2.136900 25.456953 7.355614 -0.000000 
54.940800 -3.748242 84.501297 -10.714618 -1.480551 -0.253688 -0.431842 0.185656 0.050437 3.139195 0.369970 0.111843 4.784279 0.371294 0.110032 6.549324 11.829106 -1.831012 5.778869 -13.829093 -2.064237 3.630967 -63.546311 3.661497 -57.496526 -141.996546 -93.104207 0.000001 0.000002 0.000002 79.707686 2.208981 -4.561226 -0.000001 0.000007 -2.999997 -5.000160 -7.999941 -0.000008 -17.434825 70.856949 20.663904 -54.857300 138.201050 89.858474 0.000002 0.000000 0.000000 86.884972 -1.935002 4.650477 0.000004 -0.000003 2.999989 -5.000167 7.999926 -0.000010 4.108726 -175.906509 6.173618 -179.999991 0.000005 -1.186003 168.899582 -3.634897 -0.690650 -0.000001 0.000001 0.150514 70.397578 6.862915 2.108758 25.456856 -7.355621 -0.000002 5.866166 180.084576 -0.142180 -0.000004 -0.000004 -1.208130 -8.378375 2.362919 0.381929 -0.000002 0.000001 -0.115417 69.825823 -6.865138 -2.136888 25.456952 7.355615 -0.000001 
54.936901 -3.749984 84.505394 -10.714000 -1.476781 -0.250160 -0.431022 0.185592 0.050449 3.140746 0.371243 0.111805 4.785832 0.372563 0.110019 6.589566 11.814159 -1.840647 5.670852 -13.823040 -2.080843 3.563125 -63.567430 3.580936 -57.648490 -141.979484 -93.124917 -0.000001 -0.000001 -0.000003 79.738128 2.207829 -4.561439 -0.000002 0.000004 -3.000000 -5.000163 -7.999939 -0.000010 -17.517094 70.819636 20.755039 -54.923733 138.185751 89.868719 -0.000000 0.000000 -0.000001 86.909007 -1.933840 4.650719 0.000002 -0.000002 2.999988 -5.000174 7.999925 -0.000008 4.107397 -175.911495 6.171156 -179.999991 0.000005 -1.186002 168.900087 -3.634903 -0.689621 -0.000001 0.000001 0.150540 70.397052 6.862937 2.108695 25.456860 -7.355619 -0.000002 5.859026 180.080601 -0.143958 -0.000004 -0.000004 -1.208160 -8.386097 2.361902 0.382343 -0.000002 0.000000 -0.115467 69.825625 -6.865167 -2.136907 25.456952 7.355614 -0.000001 
54.936901 -3.748923 84.504494 -10.711182 -1.472786 -0.245889 -0.430963 0.185583 0.050462 3.140796 0.372552 0.111766 4.785872 0.373866 0.110005 6.631294 11.796593 -1.850256 5.566260 -13.815570 -2.096587 3.494245 -63.586753 3.499433 -57.803884 -141.960277 -93.143324 0.000003 0.000002 0.000002 79.763311 2.206901 -4.561661 -0.000003 0.000010 -2.999998 -5.000162 -7.999936 -0.000003 -17.595544 70.783470 20.841977 -54.995331 138.166503 89.878111 0.000003 -0.000001 0.000003 86.932961 -1.932676 4.650756 0.000007 -0.000001 2.999990 -5.000171 7.999932 -0.000010 4.103936 -175.916467 6.168312 -179.999991 0.000005 -1.186003 168.900579 -3.634909 -0.689589 -0.000001 0.000001 0.150567 70.396642 6.862963 2.108624 25.456854 -7.355618 -0.000002 5.849678 180.076626 -0.145576 -0.000005 -0.000005 -1.208190 -8.393544 2.360858 0.382760 -0.000002 0.000000 -0.115540 69.825297 -6.865158 -2.136827 25.456950 7.355614 -0.000001 
54.935299 -3.750164 84.502701 -10.705960 -1.468576 -0.240773 -0.431741 0.185633 0.050474 3.139196 0.373871 0.111730 4.784273 0.375182 0.109990 6.673514 11.776826 -1.859646 5.467108 -13.806935 -2.111135 3.424995 -63.603937 3.417832 -57.963000 -141.938161 -93.158712 0.000002 0.000000 -0.000001 79.783815 2.206142 -4.561921 -0.000001 0.000008 -3.000000 -5.000162 -7.999935 -0.000005 -17.669554 70.749251 20.924042 -55.071170 138.143786 89.885542 -0.000002 0.000001 0.000000 86.956941 -1.931496 4.650985 0.000007 -0.000005 2.999990 -5.000171 7.999930 -0.000010 4.098093 -175.921426 6.165061 -179.999991 0.000005 -1.186003 168.901289 -3.634918 -0.688547 -0.000000 0.000001 0.150594 70.396533 6.862963 2.108633 25.456860 -7.355620 -0.000002 5.837894 180.072637 -0.146997 -0.000005 -0.000004 -1.208200 -8.400646 2.359786 0.383179 -0.000002 0.000000 -0.115637 69.824669 -6.865167 -2.136766 25.456955 7.355614 -0.000000 
54.930401 -3.752372 84.503502 -10.697937 -1.464183 -0.234706 -0.433422 0.185746 0.050486 3.135807 0.375185 0.111694 4.780892 0.376493 0.109976 6.715248 11.754880 -1.868583 5.375362 -13.797496 -2.124168 3.356028 -63.618274 3.336961 -58.127403 -141.911223 -93.172844 0.000002 0.000000 -0.000001 79.800167 2.205562 -4.562278 -0.000001 0.000005 -2.999999 -5.000163 -7.999938 -0.000007 -17.738406 70.717675 21.000439 -55.151937 138.116957 89.891881 0.000002 -0.000000 0.000001 86.980956 -1.930288 4.651133 -0.000001 -0.000004 2.999989 -5.000171 7.999927 -0.000008 4.089634 -175.927368 6.161311 -179.999991 0.000005 -1.186002 168.901877 -3.635905 -0.687704 -0.000000 0.000001 0.150621 70.396547 6.862996 2.108636 25.456853 -7.355620 -0.000001 5.823466 180.067665 -0.148282 -0.000005 -0.000004 -1.208210 -8.407334 2.358677 0.383600 -0.000002 0.000001 -0.115761 69.823603 -6.865168 -2.136733 25.456950 7.355613 0.000000 
54.933102 -3.757826 84.504799 -10.686406 -1.459306 -0.227338 -0.436257 0.185965 0.050498 3.130148 0.376683 0.111658 4.775224 0.377988 0.109960 6.761253 11.727367 -1.878169 5.284369 -13.784522 -2.136771 3.281626 -63.632003 3.249988 -58.294066 -141.885500 -93.183554 0.000002 0.000000 0.000000 79.806478 2.205378 -4.562577 -0.000002 0.000007 -3.000002 -5.000160 -7.999943 -0.000011 -17.801005 70.685225 21.069954 -55.237461 138.085921 89.896634 -0.000001 0.000001 -0.000002 87.004889 -1.929041 4.651359 0.000007 -0.000003 2.999989 -5.000174 7.999928 -0.000010 4.077530 -175.933283 6.156855 -179.999991 0.000005 -1.186003 168.902464 -3.636890 -0.687858 -0.000000 0.000001 0.150650 70.396977 6.863004 2.108610 25.456856 -7.355622 -0.000003 5.805393 180.062692 -0.149343 -0.000004 -0.000005 -1.208210 -8.413623 2.357481 0.384028 -0.000002 0.000000 -0.115921 69.821814 -6.865212 -2.136651 25.456952 7.355614 -0.000001 
54.926498 -3.769544 84.505806 -10.670973 -1.453699 -0.218526 -0.440328 0.186319 0.050510 3.122008 0.378528 0.111621 4.767083 0.379830 0.109944 6.816177 11.691196 -1.889391 5.186946 -13.765760 -2.150101 3.196861 -63.647234 3.150962 -58.463414 -141.864504 -93.194475 0.000000 0.000002 0.000002 79.798063 2.205773 -4.562830 -0.000002 0.000006 -3.000000 -5.000160 -7.999939 -0.000009 -17.857757 70.648752 21.132995 -55.327428 138.051524 89.898485 0.000001 0.000002 0.000000 87.028761 -1.927649 4.651500 0.000003 -0.000003 2.999990 -5.000172 7.999927 -0.000010 4.061338 -175.939184 6.151505 -179.999991 0.000005 -1.186003 168.902751 -3.637873 -0.687021 -0.000001 0.000001 0.150676 70.397722 6.863016 2.108567 25.456854 -7.355620 -0.000002 5.783233 180.056723 -0.150337 -0.000005 -0.000004 -1.208210 -8.419601 2.356109 0.384457 -0.000002 0.000000 -0.116124 69.819164 -6.865192 -2.136610 25.456952 7.355614 -0.000000 
54.935600 -3.742203 84.503296 -10.652238 -1.447480 -0.208498 -0.445488 0.186790 0.050522 3.111679 0.380658 0.111584 4.756754 0.381956 0.109927 6.878812 11.647581 -1.901919 5.084304 -13.741985 -2.163926 3.103492 -63.663579 3.041963 -58.634620 -141.847688 -93.204003 0.000001 -0.000000 0.000002 79.776965 2.206627 -4.562971 -0.000001 0.000006 -3.000000 -5.000164 -7.999935 -0.000010 -17.909340 70.608911 21.190322 -55.423341 138.012674 89.899892 0.000001 -0.000001 0.000001 87.052421 -1.926231 4.651740 0.000006 -0.000004 2.999990 -5.000171 7.999930 -0.000010 4.041615 -175.946069 6.145316 -179.999991 0.000005 -1.186002 168.902942 -3.639845 -0.687396 -0.000001 0.000001 0.150705 70.398794 6.863032 2.108605 25.456854 -7.355621 -0.000001 5.757540 180.050767 -0.151185 -0.000004 -0.000005 -1.208210 -8.425315 2.354620 0.384892 -0.000002 0.000000 -0.116363 69.815783 -6.865215 -2.136524 25.456952 7.355613 -0.000000 
54.934601 -3.748623 84.503494 -10.630802 -1.440721 -0.197468 -0.451596 0.187354 0.050534 3.099468 0.383011 0.111548 4.744545 0.384305 0.109909 6.947995 11.597848 -1.915450 4.977666 -13.714249 -2.178010 3.003342 -63.680627 2.925131 -58.808339 -141.833441 -93.212671 0.000004 0.000000 -0.000003 79.744897 2.207915 -4.563035 -0.000001 0.000010 -2.999998 -5.000164 -7.999933 -0.000005 -17.956762 70.566557 21.243055 -55.524503 137.969971 89.899968 0.000004 0.000000 -0.000002 87.075958 -1.924737 4.651972 0.000002 -0.000005 2.999991 -5.000173 7.999929 -0.000010 4.018970 -175.953951 6.138405 -179.999991 0.000005 -1.186003 168.903106 -3.641806 -0.686771 -0.000001 0.000000 0.150732 70.400167 6.863020 2.108617 25.456856 -7.355620 -0.000004 5.728863 180.043800 -0.152007 -0.000005 -0.000004 -1.208210 -8.430820 2.353014 0.385327 -0.000002 0.000000 -0.116632 69.811869 -6.865218 -2.136468 25.456950 7.355616 -0.000000 
